<svg width="32" height="32" viewBox="0 0 32 32" fill="none" xmlns="http://www.w3.org/2000/svg">
<g clip-path="url(#clip0)">
<path d="M17.7676 16.0008L31.6336 2.13471C32.1218 1.64653 32.1218 0.855027 31.6336 0.366903C31.1455 -0.121221 30.354 -0.121284 29.8658 0.366903L15.9997 14.233L2.13371 0.366903C1.64552 -0.121284 0.85402 -0.121284 0.365896 0.366903C-0.122228 0.855089 -0.122291 1.64659 0.365896 2.13471L14.2319 16.0007L0.365896 29.8668C-0.122291 30.355 -0.122291 31.1465 0.365896 31.6347C0.609958 31.8787 0.929895 32.0007 1.24983 32.0007C1.56977 32.0007 1.88964 31.8787 2.13377 31.6347L15.9997 17.7686L29.8658 31.6347C30.1098 31.8787 30.4298 32.0007 30.7497 32.0007C31.0696 32.0007 31.3895 31.8787 31.6336 31.6347C32.1218 31.1465 32.1218 30.355 31.6336 29.8668L17.7676 16.0008Z" fill="white"/>
</g>
<defs>
<clipPath id="clip0">
<rect width="32" height="32" fill="white"/>
</clipPath>
</defs>
</svg>
