<svg width="64" height="64" viewBox="0 0 64 64" fill="none" xmlns="http://www.w3.org/2000/svg">
<path d="M9.1428 23.7038C4.56088 23.7038 0.846497 27.4181 0.846497 32.0001C0.846497 36.582 4.56088 40.2964 9.1428 40.2964C13.7247 40.2964 17.4391 36.582 17.4391 32.0001C17.4391 27.4181 13.7247 23.7038 9.1428 23.7038ZM9.1428 36.9101C6.43111 36.9101 4.23275 34.7118 4.23275 32.0001C4.23275 29.2884 6.43111 27.09 9.1428 27.09C11.8545 27.09 14.0529 29.2884 14.0529 32.0001C14.0529 34.7118 11.8547 36.9101 9.1428 36.9101Z" fill="white"/>
<path d="M61.4604 30.3069H23.1958C22.2607 30.3069 21.5027 31.065 21.5027 32.0001C21.5027 32.9352 22.2607 33.6932 23.1958 33.6932H61.4604C62.3955 33.6932 63.1535 32.9352 63.1535 32.0001C63.1535 31.065 62.3955 30.3069 61.4604 30.3069Z" fill="white"/>
<path d="M9.1428 0C4.56088 0 0.846497 3.71438 0.846497 8.2963C0.846497 12.8782 4.56088 16.5926 9.1428 16.5926C13.7247 16.5926 17.4391 12.8782 17.4391 8.2963C17.4391 3.71438 13.7247 0 9.1428 0ZM9.1428 13.2064C6.43111 13.2064 4.23275 11.008 4.23275 8.2963C4.23275 5.58461 6.43111 3.38625 9.1428 3.38625C11.8545 3.38625 14.0529 5.58461 14.0529 8.2963C14.0529 11.008 11.8547 13.2064 9.1428 13.2064Z" fill="white"/>
<path d="M23.1958 9.98943H61.4604C62.3955 9.98943 63.1535 9.23142 63.1535 8.29631C63.1535 7.36119 62.3955 6.60318 61.4604 6.60318H23.1958C22.2607 6.60318 21.5027 7.36119 21.5027 8.29631C21.5027 9.23142 22.2607 9.98943 23.1958 9.98943Z" fill="white"/>
<path d="M9.1428 47.4074C4.56088 47.4074 0.846497 51.1218 0.846497 55.7037C0.846497 60.2856 4.56088 64 9.1428 64C13.7247 64 17.4391 60.2856 17.4391 55.7037C17.4391 51.1218 13.7247 47.4074 9.1428 47.4074ZM14.0529 55.7037C14.0529 58.4154 11.8545 60.6137 9.1428 60.6137C6.43111 60.6137 4.23275 58.4154 4.23275 55.7037C4.23275 52.992 6.43111 50.7936 9.1428 50.7936C11.8545 50.7936 14.0529 52.992 14.0529 55.7037Z" fill="white"/>
<path d="M61.4604 54.0106H23.1958C22.2607 54.0106 21.5027 54.7686 21.5027 55.7037C21.5027 56.6388 22.2607 57.3968 23.1958 57.3968H61.4604C62.3955 57.3968 63.1535 56.6388 63.1535 55.7037C63.1535 54.7686 62.3955 54.0106 61.4604 54.0106Z" fill="white"/>
</svg>
