<svg width="32" height="32" viewBox="0 0 32 32" fill="none" xmlns="http://www.w3.org/2000/svg">
<g id="brightness_4-24px 1">
<path id="Vector" d="M26.6667 11.5867V5.33335H20.4133L16 0.920013L11.5867 5.33335H5.33333V11.5867L0.919998 16L5.33333 20.4133V26.6667H11.5867L16 31.08L20.4133 26.6667H26.6667V20.4133L31.08 16L26.6667 11.5867ZM16 24C14.8133 24 13.68 23.7333 12.6667 23.2667C15.4133 22 17.3333 19.2267 17.3333 16C17.3333 12.7733 15.4133 10 12.6667 8.73335C13.68 8.26668 14.8133 8.00001 16 8.00001C20.4133 8.00001 24 11.5867 24 16C24 20.4133 20.4133 24 16 24Z" fill="#7D07F2"/>
</g>
</svg>
