<svg width="32" height="32" viewBox="0 0 32 32" fill="none" xmlns="http://www.w3.org/2000/svg">
<path d="M28.394 3.60319C23.6171 -1.18698 15.8614 -1.19779 11.0712 3.57916C6.4492 8.18838 6.25365 15.6123 10.6265 20.4585L9.69107 21.394C8.9353 20.6381 7.70987 20.6379 6.95402 21.3937C6.95394 21.3938 6.95386 21.3939 6.95378 21.394L0.566987 27.7807C-0.188864 28.5365 -0.189026 29.7619 0.566745 30.5178C0.566825 30.5179 0.566906 30.518 0.566987 30.518L1.4792 31.4303C2.23497 32.1858 3.46007 32.1858 4.21584 31.4303L10.6026 25.0435C11.3585 24.2877 11.3586 23.0623 10.6029 22.3064C10.6028 22.3063 10.6027 22.3063 10.6026 22.3062L11.5381 21.3707C16.5572 25.9066 24.3029 25.5147 28.8388 20.4957C33.22 15.6476 33.0243 8.21402 28.394 3.60319ZM9.69107 24.1306L3.30427 30.5174C3.05235 30.7692 2.64398 30.7692 2.39206 30.5174L1.47985 29.6045C1.22841 29.3527 1.22841 28.9448 1.47985 28.693L7.86664 22.3062C8.12179 22.0622 8.5237 22.0622 8.77885 22.3062L9.69107 23.219C9.94251 23.4709 9.94251 23.8788 9.69107 24.1306ZM27.4825 20.0256C23.1995 24.3085 16.2554 24.3084 11.9725 20.0254C7.68963 15.7424 7.68971 8.79827 11.9727 4.51541C16.2557 0.232628 23.1995 0.232628 27.4825 4.51541C31.7585 8.80133 31.7585 15.7397 27.4825 20.0256Z" fill="white"/>
<path d="M26.5696 5.4274L25.6574 6.33961C28.927 9.6172 28.927 14.9227 25.6574 18.2003L26.5696 19.1125C30.3433 15.3313 30.3433 9.20867 26.5696 5.4274Z" fill="white"/>
</svg>
