<svg width="375" height="812" viewBox="0 0 375 812" fill="none" xmlns="http://www.w3.org/2000/svg">
<path d="M1.60933e-06 725C1.60933e-06 725 -23 330 181 324.5C385 319 375 73.5 375 73.5V812.5H1.60933e-06V725Z" fill="#8650FA"/>
<path fill-rule="evenodd" clip-rule="evenodd" d="M-0.919995 0L-0.919977 202.237C-1.09989 208.431 -0.919976 212 -0.919976 212L-0.919977 202.237C0.243466 162.188 16.4541 12.4117 193.669 8.55075C212.253 8.14586 228.959 5.13682 243.974 0H-0.919995Z" fill="#8650FA"/>
<path fill-rule="evenodd" clip-rule="evenodd" d="M0 425.892C6.12355 385.828 37.9077 323.223 176 319.5C365.701 314.386 374.674 253.929 375 245.478V812H0V473V459V425.892ZM375 244.5V245.478C375.025 244.841 375 244.5 375 244.5Z" fill="#7B0BEB"/>
</svg>
