<svg width="354" height="291" viewBox="0 0 354 291" fill="none" xmlns="http://www.w3.org/2000/svg">
<path d="M309.201 231.651C309.201 220.568 306.096 209.707 300.24 200.305C294.384 190.903 286.012 183.337 276.077 178.469C266.142 173.601 255.042 171.625 244.042 172.768C233.042 173.91 222.582 178.124 213.854 184.931C206.426 176.316 196.84 169.841 186.084 166.173C175.328 162.506 163.792 161.777 152.661 164.063C141.532 166.349 131.211 171.567 122.762 179.179C114.312 186.791 108.041 196.523 104.592 207.372C98.8214 202.231 91.8913 198.572 84.3975 196.709C76.9037 194.846 69.0705 194.835 61.5716 196.677C54.0727 198.519 47.1326 202.16 41.348 207.285C35.5634 212.41 31.1076 218.866 28.3637 226.099C25.6198 233.331 24.6699 241.124 25.5958 248.806C26.5217 256.488 29.2956 263.829 33.679 270.199C38.0624 276.569 43.924 281.777 50.7599 285.374C57.5957 288.971 65.2011 290.851 72.922 290.85C73.6629 290.85 74.3992 290.831 75.1318 290.798C75.8883 290.83 76.6481 290.85 77.4127 290.85H256.349C269.224 290.85 281.638 286.046 291.171 277.374C300.705 268.702 306.677 256.784 307.923 243.942C308.773 239.9 309.202 235.781 309.201 231.651Z" fill="#8650FA"/>
<path d="M77.4198 186.146C98.1569 186.146 114.968 169.298 114.968 148.516C114.968 127.733 98.1569 110.886 77.4198 110.886C56.6828 110.886 39.8721 127.733 39.8721 148.516C39.8721 169.298 56.6828 186.146 77.4198 186.146Z" fill="#8650FA"/>
<path d="M86.7454 75.6905C86.7454 70.5967 82.6251 66.4674 77.5425 66.4674C72.4599 66.4674 68.3397 70.5967 68.3397 75.6905V94.4317C68.3397 99.5254 72.46 103.655 77.5426 103.655C82.6252 103.655 86.7454 99.5254 86.7454 94.4317V75.6905Z" fill="#8650FA"/>
<path d="M145.013 120.197C149.415 117.65 150.923 112.009 148.382 107.598C145.84 103.187 140.212 101.675 135.81 104.222L119.615 113.593C115.214 116.14 113.706 121.78 116.247 126.192C118.788 130.603 124.417 132.114 128.818 129.568L145.013 120.197Z" fill="#8650FA"/>
<path d="M9.82658 176.834C5.42492 179.381 3.91681 185.022 6.45811 189.433C8.99941 193.844 14.6278 195.356 19.0295 192.809L35.2243 183.438C39.626 180.892 41.1341 175.251 38.5928 170.839C36.0515 166.428 30.4231 164.917 26.0215 167.464L9.82658 176.834Z" fill="#8650FA"/>
<path d="M19.1522 104.009C14.7505 101.462 9.1221 102.974 6.5808 107.385C4.0395 111.796 5.54762 117.437 9.94928 119.984L26.1442 129.355C30.5458 131.901 36.1742 130.39 38.7155 125.979C41.2568 121.567 39.7487 115.927 35.3471 113.38L19.1522 104.009Z" fill="#8650FA"/>
<path d="M280.155 213.712L273.689 226.921C273.689 226.921 262.001 225.425 266.726 240.877C266.726 240.877 265.483 252.591 262.996 255.083C260.509 257.576 264.985 274.025 273.938 269.289C278.974 266.626 279.288 263.568 278.6 261.402C277.532 258.172 277.323 254.719 277.995 251.384C278.894 247.167 280.512 241.775 283.388 237.139C289.107 227.918 294.578 218.946 294.578 218.946L280.155 213.712Z" fill="#A0616A"/>
<path d="M263.991 132.464C263.991 132.464 249.816 128.975 245.091 131.467C240.366 133.959 226.44 134.209 226.44 134.209C226.44 134.209 214.752 153.15 217.487 162.87C220.223 172.589 231.662 178.571 231.662 178.571L270.208 178.82L276.425 153.399C276.425 153.399 273.441 135.953 270.954 134.956C268.467 133.959 263.991 132.464 263.991 132.464Z" fill="#3F3D56"/>
<path d="M251.308 66.6681C262.982 66.6681 272.446 57.1836 272.446 45.4838C272.446 33.7841 262.982 24.2996 251.308 24.2996C239.634 24.2996 230.17 33.7841 230.17 45.4838C230.17 57.1836 239.634 66.6681 251.308 66.6681Z" fill="#2F2E41"/>
<path d="M238.128 63.6774C238.128 63.6774 240.615 74.1449 236.884 75.391C233.154 76.6372 229.921 81.6217 229.921 81.6217L235.392 90.8431L254.043 95.5784L259.763 90.0954L263.991 78.3818L259.763 75.391C259.763 75.391 255.784 76.6372 255.535 72.6495C255.416 69.6566 255.5 66.6591 255.784 63.6774L238.128 63.6774Z" fill="#A0616A"/>
<path opacity="0.1" d="M238.128 63.6774C238.128 63.6774 240.615 74.1449 236.884 75.391C233.154 76.6372 229.921 81.6217 229.921 81.6217L235.392 90.8431L254.043 95.5784L259.763 90.0954L263.991 78.3818L259.763 75.391C259.763 75.391 255.784 76.6372 255.535 72.6495C255.416 69.6566 255.5 66.6591 255.784 63.6774L238.128 63.6774Z" fill="black"/>
<path d="M247.702 70.5311C256.08 70.5311 262.872 63.7246 262.872 55.3283C262.872 46.932 256.08 40.1255 247.702 40.1255C239.324 40.1255 232.532 46.932 232.532 55.3283C232.532 63.7246 239.324 70.5311 247.702 70.5311Z" fill="#A0616A"/>
<path d="M246.832 90.0954L232.408 76.8864C232.408 76.8864 225.942 82.3694 225.196 82.3694C224.45 82.3694 214.752 85.3601 214.503 86.6062C214.254 87.8523 222.958 101.061 222.958 101.061C222.958 101.061 220.969 110.781 222.958 115.018C224.948 119.255 223.456 137.448 223.456 137.448C223.456 137.448 236.636 132.713 243.599 134.956C250.562 137.199 270.954 134.956 270.954 134.956C270.954 134.956 273.938 115.766 272.694 113.273C271.451 110.781 271.202 96.5753 271.202 96.5753L281.896 84.8617C281.896 84.8617 279.658 75.8895 271.202 75.391C262.747 74.8926 257.525 74.3941 257.525 74.3941L246.832 90.0954Z" fill="#2F2E41"/>
<path d="M229.921 151.405C229.921 151.405 202.069 138.695 190.878 132.713C179.688 126.732 162.528 131.467 167.999 144.925C173.47 158.383 204.058 171.592 204.058 171.592C204.058 171.592 214.006 179.069 219.974 178.82C225.942 178.571 234.522 178.695 234.522 178.695L229.921 151.405Z" fill="#3F3D56"/>
<path d="M272.943 153.15C272.943 153.15 322.928 153.648 319.695 172.34C316.462 191.032 297.314 222.185 293.832 222.933C290.351 223.681 277.668 218.198 277.668 216.453C277.668 214.709 289.854 182.558 289.854 182.558L260.012 173.337L272.943 153.15Z" fill="#3F3D56"/>
<path d="M282.393 97.323C282.393 97.323 285.377 125.984 283.885 130.47C282.393 134.956 277.171 147.168 270.456 153.15C263.742 159.131 254.292 189.288 249.07 174.832C243.847 160.377 257.525 152.402 257.525 152.402L271.235 133.07L271.364 101.609L282.393 97.323Z" fill="#A0616A"/>
<path d="M226.44 157.387C226.44 157.387 251.059 166.11 253.795 164.863C256.53 163.617 262.499 168.103 262.499 168.103C265.257 167.512 268.104 167.471 270.878 167.984C273.652 168.498 276.297 169.554 278.663 171.094C286.621 176.328 288.361 182.309 286.621 182.558C284.88 182.808 278.663 180.066 278.663 180.066C278.663 180.066 269.213 178.072 263.493 179.817C257.774 181.562 250.319 177.884 250.319 177.884L219.974 171.094L226.44 157.387Z" fill="#A0616A"/>
<path opacity="0.1" d="M226.44 157.387C226.44 157.387 251.059 166.11 253.795 164.863C256.53 163.617 262.499 168.103 262.499 168.103C265.257 167.512 268.104 167.471 270.878 167.984C273.652 168.498 276.297 169.554 278.663 171.094C286.621 176.328 288.361 182.309 286.621 182.558C284.88 182.808 278.663 180.066 278.663 180.066C278.663 180.066 269.213 178.072 263.493 179.817C257.774 181.562 250.319 177.884 250.319 177.884L219.974 171.094L226.44 157.387Z" fill="black"/>
<path d="M214.503 108.04C214.503 108.04 214.752 138.944 218.482 142.682C222.212 146.421 226.191 151.405 229.921 153.648C233.651 155.891 235.641 161.125 235.641 161.125C235.641 161.125 253.546 187.294 253.795 175.331C254.043 163.368 244.593 153.897 244.593 153.897L242.744 152.132C238.698 148.316 235.039 144.107 231.822 139.568C231.088 138.485 230.195 137.518 229.175 136.701C225.942 134.209 225.196 106.794 225.196 106.794L214.503 108.04Z" fill="#A0616A"/>
<path d="M276.673 81.8709L281.896 84.8617C281.896 84.8617 283.885 98.0707 284.88 99.8153C285.875 101.56 272.695 106.046 270.705 104.8C268.716 103.554 267.721 91.3416 267.721 91.3416L276.673 81.8709Z" fill="#2F2E41"/>
<path d="M217.736 86.357H214.503C214.503 86.357 211.021 90.0954 211.27 98.0706C211.519 106.046 208.286 111.03 210.275 111.778C212.265 112.526 222.188 108.568 222.076 109.675C221.963 110.781 227.186 108.787 227.186 108.787L223.704 95.5784L217.736 86.357Z" fill="#2F2E41"/>
<path opacity="0.1" d="M192.744 137.448C192.744 137.448 207.913 143.928 212.141 144.925C216.368 145.922 230.032 157.587 230.032 157.587L220.705 171.781C220.705 171.781 211.146 170.596 205.924 169.599C200.702 168.602 169.616 147.916 174.839 144.427C180.061 140.938 192.744 137.448 192.744 137.448Z" fill="black"/>
<path d="M189.635 137.448C189.635 137.448 204.804 143.928 209.032 144.925C213.26 145.922 229.921 157.387 229.921 157.387L221.715 173.337C221.715 173.337 208.037 170.596 202.815 169.599C197.593 168.602 166.507 147.916 171.73 144.427C176.952 140.938 189.635 137.448 189.635 137.448Z" fill="#3F3D56"/>
<path d="M255.411 52.3376C267.085 52.3376 276.549 42.8531 276.549 31.1533C276.549 19.4536 267.085 9.96906 255.411 9.96906C243.737 9.96906 234.273 19.4536 234.273 31.1533C234.273 42.8531 243.737 52.3376 255.411 52.3376Z" fill="#2F2E41"/>
<path d="M261.379 19.9381C266.873 19.9381 271.327 15.4748 271.327 9.96906C271.327 4.4633 266.873 0 261.379 0C255.886 0 251.432 4.4633 251.432 9.96906C251.432 15.4748 255.886 19.9381 261.379 19.9381Z" fill="#2F2E41"/>
</svg>
